<svg xmlns="http://www.w3.org/2000/svg" width="16" height="16"><rect width="16" height="16" rx="2" ry="2" stroke="#27272a" fill="#27272a" stroke-width="0" stroke-opacity="0"/><path d="M4.9 10.01 4 10A1 1 1 0012 10L12 3 9 3 9 4.5 10 4.5 10.01 10.24" stroke="#e4e4e7" stroke-opacity="1" stroke-linecap="butt" stroke-linejoin="miter" fill-opacity="0" stroke-width=".8"/><path stroke="#e4e4e7" stroke-width=".5" fill-opacity="0" d="M10.15 10.21C10.151 11.224 9.927 11.865 9.04 12.2 7.21 12.89 4.77 11.76 4.33 8.28L3.77 7.9 4.36 7.54C4.98 6.18 6.86 6.55 7.28 8.07L10.1 10.38"/><circle r=".32" cx="5.33" cy="7.87" stroke="#e4e4e7" opacity="1" stroke-opacity="0" fill="#e4e4e7"/><path d="M7.26 8.06C5.81 11 8.05 12.47 11.04 10.81L10.14 10.32" stroke="#e4e4e7" stroke-width=".3" fill-opacity="0"/></svg>